<?xml version="1.0" standalone="no"?><!DOCTYPE svg PUBLIC "-//W3C//DTD SVG 1.1//EN" "http://www.w3.org/Graphics/SVG/1.1/DTD/svg11.dtd"><svg class="icon" style="" viewBox="0 0 1024 1024" version="1.1" xmlns="http://www.w3.org/2000/svg" p-id="1572" xmlns:xlink="http://www.w3.org/1999/xlink" width="200" height="200"><defs><style type="text/css"><![CDATA[

]]></style></defs><path d="M906.273 726.138L673.907 516.47l232.366-203.94v413.608z m-745.44 37.98L394.07 556.866l38.208 33.567c22.205 19.413 49.55 29.385 81.72 29.385 32.341 0 59.52-9.972 81.808-29.385l38.207-33.567L867.25 764.12H160.833z m-39.08-37.98V312.529L354.12 516.47 121.753 726.138z m747.352-462.374L571.581 527.735c-25.97 23.173-45.2 34.69-57.582 34.69-12.38 0-31.611-11.517-57.579-34.69l-297.526-263.97h710.211z m17.939-53.763H140.956C99.631 210 66 243.652 66 285.085v457.769c0 41.462 33.631 75.03 74.956 75.03h746.088c41.494 0 74.956-33.568 74.956-75.03v-457.77c0-41.432-33.462-75.083-74.956-75.083z" fill="#cdcdcd" p-id="1573"></path></svg>